<?xml version="1.0" encoding="utf-8"?>
<!-- Generator: Adobe Illustrator 15.0.0, SVG Export Plug-In . SVG Version: 6.00 Build 0)  -->
<!DOCTYPE svg PUBLIC "-//W3C//DTD SVG 1.1 Tiny//EN" "http://www.w3.org/Graphics/SVG/1.1/DTD/svg11-tiny.dtd">
<svg version="1.1" baseProfile="tiny" id="圖層_1"
	 xmlns="http://www.w3.org/2000/svg" xmlns:xlink="http://www.w3.org/1999/xlink" x="0px" y="0px" width="449.683px"
	 height="115.895px" viewBox="0 0 449.683 115.895" xml:space="preserve">
<g>
	<path fill="none" d="M360.352,39.205h10.654c0.084,0,0.136-0.041,0.158-0.126c0.02-0.084,0.01-0.147-0.032-0.19
		c-1.976-2.016-3.762-4.075-5.359-6.177c-0.042-0.126-0.126-0.179-0.252-0.159c-0.126,0.023-0.211,0.075-0.252,0.159
		c-1.429,2.017-3.11,4.077-5.044,6.177c-0.084,0.043-0.104,0.106-0.062,0.19C360.204,39.164,360.267,39.205,360.352,39.205z"/>
	<path fill="none" d="M355.813,58.18h1.64c0.294,0,0.44-0.146,0.44-0.441v-2.648c0-0.293-0.146-0.441-0.44-0.441h-1.64
		c-0.337,0-0.505,0.148-0.505,0.441v2.648C355.308,58.034,355.476,58.18,355.813,58.18z"/>
	<path fill="none" d="M374.158,58.18h1.827c0.337,0,0.505-0.146,0.505-0.441v-2.648c0-0.293-0.168-0.441-0.505-0.441h-1.827
		c-0.295,0-0.441,0.148-0.441,0.441v2.648C373.717,58.034,373.863,58.18,374.158,58.18z"/>
	<path fill="none" d="M404.009,108.067c-0.2-0.84-0.346-1.441-0.437-1.804c-0.01-0.021-0.026-0.031-0.046-0.031
		c-0.021,0-0.029,0.011-0.029,0.031c-0.404,1.712-0.696,2.934-0.876,3.668l-0.227,0.86c-0.012,0.031-0.005,0.06,0.016,0.083
		c0.019,0.025,0.045,0.038,0.075,0.038h2.113c0.029,0,0.056-0.013,0.075-0.038c0.021-0.023,0.025-0.052,0.016-0.083l-0.228-0.86
		C404.362,109.529,404.211,108.908,404.009,108.067z"/>
	<path fill="none" d="M287.349,46.959h6.809c0.125,0,0.209-0.042,0.251-0.126c0.041-0.084,0.041-0.189,0-0.315
		c-0.21-0.379-0.42-0.777-0.63-1.198c-0.126-0.293-0.337-0.442-0.63-0.442h-4.791c-0.295,0-0.505,0.149-0.631,0.442
		c-0.085,0.126-0.2,0.326-0.348,0.598c-0.147,0.275-0.241,0.474-0.283,0.6s-0.042,0.231,0,0.315S287.223,46.959,287.349,46.959z"/>
	<path fill="none" d="M401.329,52.507h-2.018c-0.337,0-0.505,0.168-0.505,0.504v2.018c0,0.294,0.168,0.44,0.505,0.44h2.018
		c0.294,0,0.44-0.146,0.44-0.44v-2.018C401.77,52.675,401.623,52.507,401.329,52.507z"/>
	<path fill="none" d="M423.583,58.622h1.451c0.293,0,0.439-0.147,0.439-0.442v-3.971c0-0.294-0.146-0.441-0.439-0.441h-1.451
		c-0.337,0-0.504,0.147-0.504,0.441v3.971C423.079,58.475,423.246,58.622,423.583,58.622z"/>
	<path fill="none" d="M348.211,112.536c0.437-0.659,0.655-1.548,0.655-2.665c0-1.106-0.219-1.974-0.655-2.603
		c-0.439-0.63-1.038-0.945-1.798-0.945c-0.761,0-1.355,0.315-1.789,0.945c-0.434,0.629-0.649,1.496-0.649,2.603
		c0,1.128,0.216,2.019,0.649,2.673s1.028,0.981,1.789,0.981C347.173,113.525,347.771,113.195,348.211,112.536z"/>
	<path fill="none" d="M439.911,58.622h1.829c0.293,0,0.44-0.147,0.44-0.442v-3.971c0-0.294-0.147-0.441-0.44-0.441h-1.829
		c-0.337,0-0.504,0.147-0.504,0.441v3.971C439.407,58.475,439.574,58.622,439.911,58.622z"/>
	<path fill="none" d="M401.329,42.924h-2.018c-0.337,0-0.505,0.148-0.505,0.442v1.891c0,0.337,0.168,0.504,0.505,0.504h2.018
		c0.294,0,0.44-0.167,0.44-0.504v-1.891C401.77,43.072,401.623,42.924,401.329,42.924z"/>
	<path fill="none" d="M236.409,73.815l4.413-0.818c0.336-0.041,0.441-0.211,0.315-0.505c-1.599-3.908-2.858-8.805-3.782-14.689
		c-0.042-0.294-0.211-0.441-0.504-0.441h-0.442c-0.295,0-0.44,0.147-0.44,0.441v15.635
		C235.969,73.731,236.114,73.858,236.409,73.815z"/>
	<path fill="none" d="M394.242,106.693c-0.327-0.216-0.833-0.324-1.518-0.324h-1.116c-0.082,0-0.121,0.035-0.121,0.105v2.868
		c0,0.071,0.039,0.105,0.121,0.105h1.116c0.664,0,1.164-0.138,1.502-0.414c0.338-0.277,0.507-0.687,0.507-1.231
		C394.733,107.28,394.569,106.91,394.242,106.693z"/>
	<path fill="none" d="M281.543,106.693c-0.327-0.216-0.833-0.324-1.519-0.324h-1.115c-0.082,0-0.121,0.035-0.121,0.105v2.868
		c0,0.071,0.039,0.105,0.121,0.105h1.115c0.665,0,1.165-0.138,1.503-0.414c0.338-0.277,0.506-0.687,0.506-1.231
		C282.033,107.28,281.87,106.91,281.543,106.693z"/>
	<path fill="none" d="M401.329,33.279h-2.018c-0.337,0-0.505,0.147-0.505,0.441v1.954c0,0.295,0.168,0.442,0.505,0.442h2.018
		c0.294,0,0.44-0.147,0.44-0.442V33.72C401.77,33.426,401.623,33.279,401.329,33.279z"/>
	<path fill="none" d="M432.662,32.522c-0.085-0.083-0.181-0.126-0.284-0.126c-0.106,0-0.18,0.043-0.221,0.126
		c-1.304,2.059-2.964,4.161-4.98,6.305c-0.084,0.042-0.106,0.105-0.063,0.189c0.041,0.084,0.105,0.126,0.19,0.126h10.211
		c0.084,0,0.148-0.042,0.19-0.126c0.041-0.084,0.041-0.147,0-0.189C435.645,36.725,433.964,34.624,432.662,32.522z"/>
	<path fill="none" d="M432.152,112.536c0.437-0.659,0.655-1.548,0.655-2.665c0-1.106-0.219-1.974-0.655-2.603
		c-0.439-0.63-1.038-0.945-1.799-0.945c-0.76,0-1.354,0.315-1.787,0.945c-0.435,0.629-0.65,1.496-0.65,2.603
		c0,1.128,0.216,2.019,0.65,2.673c0.433,0.654,1.027,0.981,1.787,0.981C431.114,113.525,431.713,113.195,432.152,112.536z"/>
	<path fill="none" d="M382.821,112.536c0.437-0.659,0.655-1.548,0.655-2.665c0-1.106-0.219-1.974-0.655-2.603
		c-0.439-0.63-1.037-0.945-1.798-0.945s-1.355,0.315-1.788,0.945c-0.435,0.629-0.649,1.496-0.649,2.603
		c0,1.128,0.215,2.019,0.649,2.673c0.433,0.654,1.027,0.981,1.788,0.981S382.382,113.195,382.821,112.536z"/>
	<path fill="none" d="M359.632,106.693c-0.327-0.216-0.833-0.324-1.519-0.324h-1.116c-0.081,0-0.121,0.035-0.121,0.105v2.868
		c0,0.071,0.04,0.105,0.121,0.105h1.116c0.665,0,1.165-0.138,1.502-0.414c0.338-0.277,0.507-0.687,0.507-1.231
		C360.122,107.28,359.959,106.91,359.632,106.693z"/>
	<path fill="none" d="M370.804,106.723c-0.342-0.236-0.861-0.354-1.556-0.354h-1.012c-0.08,0-0.12,0.035-0.12,0.105v3.095
		c0,0.081,0.04,0.121,0.12,0.121h1.088c1.327,0,1.992-0.589,1.992-1.767C371.316,107.36,371.145,106.96,370.804,106.723z"/>
	<path fill="#D43C31" d="M29.88,115.887c17.182,0.373,31.262-13.513,31.229-30.604l-0.071-36.767
		c-0.005-2.472,1.995-4.479,4.466-4.484l12.887-0.025l-0.017-8.702l17.404-0.034l0.017,8.702l18.026-0.035
		c3.653-10.136,13.345-17.417,24.724-17.451l-73.074,0.141c-12.083,0.024-21.86,9.838-21.836,21.921l0.071,36.767
		c0.014,7.47-6.235,13.517-13.785,13.158c-7.063-0.335-12.498-6.418-12.512-13.489l-0.004-2.313
		c-0.009-4.806-3.913-8.695-8.719-8.685C3.879,73.996-0.009,77.9,0,82.706l0.004,2.122C0.037,101.512,13.201,115.525,29.88,115.887z
		"/>
	<rect x="138.865" y="43.888" transform="matrix(-1 0.002 -0.002 -1 282.2364 87.4948)" fill="#D43C31" width="4.42" height="0"/>
	<path fill="#D43C31" d="M78.375,35.307l0.017,8.702l0.122,63.092c0.01,4.806,3.913,8.694,8.719,8.686
		c4.806-0.01,8.695-3.913,8.686-8.719l-0.122-63.092l-0.017-8.702L78.375,35.307z"/>
	<path fill="#D43C31" d="M113.821,43.94c-1.094,3.037-1.653,6.326-1.544,9.758c0.454,14.337,12.616,25.538,26.959,25.511
		l14.596-0.028c4.946-0.01,8.964,3.992,8.973,8.938l0.002,1.16c0.01,4.946-3.992,8.964-8.938,8.974l-32.815,0.063
		c-4.806,0.009-8.695,3.912-8.686,8.719c0.01,4.806,3.913,8.694,8.72,8.686l32.814-0.063c14.559-0.028,26.338-11.853,26.31-26.411
		l-0.002-1.16c-0.029-14.559-11.854-26.338-26.412-26.31l-15.157,0.029c-5.223,0.01-9.425-4.478-8.934-9.802
		c0.428-4.641,4.5-8.1,9.158-8.111c0.001,0,0.003,0,0.004,0l4.416-0.008l24.656-0.046c4.806-0.01,8.694-3.913,8.685-8.72
		c-0.009-4.806-3.912-8.694-8.719-8.686l-29.334,0.057c-0.009,0-0.019,0.001-0.028,0.001
		C127.167,26.522,117.474,33.804,113.821,43.94z"/>
	<circle fill="#D43C31" cx="51.958" cy="10.982" r="10.982"/>
	<path fill="#0D0D0D" d="M201.831,76.369c-0.148,0.147-0.41,0.221-0.789,0.221c-0.294,0.042-0.715,0.063-1.26,0.063
		c-0.589,0-1.103,0.169-1.544,0.505c-0.442,0.337-0.748,0.768-0.915,1.292c-0.168,0.526-0.168,1.061,0,1.607
		c0.126,0.505,0.252,1.009,0.378,1.514c0.294,1.093,0.841,1.975,1.64,2.647c0.714,0.631,1.513,0.946,2.396,0.946
		c0.126,0,0.252-0.022,0.378-0.063c2.437-0.211,4.328-0.757,5.673-1.64c1.051-0.714,1.786-1.682,2.207-2.899
		c0.419-1.22,0.63-2.879,0.63-4.979V61.458c0-0.335,0.168-0.545,0.505-0.629c0.588-0.169,1.135-0.316,1.639-0.442
		c1.009-0.294,1.806-0.883,2.395-1.765c0.462-0.714,0.695-1.492,0.695-2.332c0-0.21-0.023-0.42-0.064-0.631l-0.126-1.009
		c-0.126-0.966-0.609-1.723-1.45-2.27c-0.547-0.419-1.135-0.63-1.765-0.63c-0.295,0-0.589,0.042-0.882,0.126l-0.442,0.126
		c-0.126,0.042-0.242,0.022-0.347-0.062s-0.158-0.19-0.158-0.315v-6.873c0-0.336,0.168-0.503,0.505-0.503h0.945
		c1.051,0,1.933-0.357,2.649-1.073c0.714-0.714,1.071-1.596,1.071-2.647v-1.135c0-1.05-0.357-1.933-1.071-2.647
		c-0.716-0.715-1.598-1.073-2.649-1.073h-0.945c-0.337,0-0.505-0.167-0.505-0.504v-7.503c0-1.049-0.357-1.932-1.071-2.647
		c-0.715-0.714-1.598-1.071-2.648-1.071h-1.135c-1.008,0-1.881,0.357-2.616,1.071c-0.736,0.715-1.104,1.598-1.104,2.647v7.503
		c0,0.337-0.147,0.504-0.44,0.504h-1.892c-1.051,0-1.934,0.358-2.647,1.073c-0.716,0.714-1.073,1.597-1.073,2.647v1.135
		c0,1.051,0.357,1.933,1.073,2.647c0.713,0.716,1.596,1.073,2.647,1.073h1.892c0.293,0,0.44,0.167,0.44,0.503v8.953
		c0,0.336-0.147,0.525-0.44,0.567c-0.421,0.085-0.978,0.211-1.671,0.378c-0.694,0.169-1.166,0.274-1.418,0.315
		c-1.009,0.252-1.787,0.799-2.333,1.639c-0.421,0.631-0.631,1.283-0.631,1.955c0,0.252,0.042,0.525,0.126,0.819l0.379,1.703
		c0.21,1.008,0.734,1.764,1.576,2.269c0.588,0.337,1.197,0.504,1.828,0.504c0.293,0,0.608-0.041,0.945-0.126l1.199-0.314
		c0.126-0.041,0.23-0.021,0.314,0.063c0.084,0.085,0.126,0.19,0.126,0.315v11.79C202.05,75.958,201.978,76.222,201.831,76.369z"/>
	<path fill="#0D0D0D" d="M254.944,30.631v-0.567c0-1.009-0.369-1.881-1.103-2.616c-0.736-0.736-1.608-1.104-2.617-1.104H221.72
		c-1.009,0-1.881,0.368-2.616,1.104c-0.736,0.735-1.103,1.607-1.103,2.616v15.697c0,2.733-0.054,5.212-0.158,7.44
		c-0.105,2.227-0.315,4.781-0.63,7.659c-0.315,2.879-0.842,5.664-1.576,8.354c-0.736,2.689-1.671,5.128-2.806,7.313
		c-0.295,0.589-0.441,1.198-0.441,1.828c0,0.337,0.041,0.673,0.126,1.009c0.252,0.968,0.777,1.766,1.576,2.396
		c0.42,0.294,0.819,0.588,1.197,0.883c0.631,0.505,1.345,0.757,2.144,0.757h0.441c0.967-0.126,1.681-0.609,2.144-1.45
		c3.194-6.052,5.231-14.1,6.115-24.146c0.041-0.294,0.23-0.441,0.566-0.441h0.505c0.336,0,0.504,0.147,0.504,0.441v17.085
		c0,0.337-0.168,0.526-0.504,0.568c-0.126,0.042-0.273,0.062-0.44,0.062c-0.968,0.211-1.745,0.716-2.333,1.514
		c-0.378,0.59-0.567,1.219-0.567,1.891c0,0.294,0.041,0.567,0.125,0.819l0.126,0.632c0.252,1.008,0.798,1.806,1.641,2.395
		c0.63,0.379,1.302,0.567,2.017,0.567c0.294,0,0.568-0.042,0.82-0.126c4.539-0.967,8.3-1.766,11.283-2.396
		c0.968-0.252,1.744-0.778,2.333-1.576c0.505-0.714,0.757-1.471,0.757-2.27v-0.441c0-0.041,0.021-0.071,0.063-0.095
		c0.041-0.021,0.084-0.01,0.126,0.032c1.513,2.605,3.404,4.812,5.673,6.62c0.588,0.419,1.199,0.63,1.828,0.63
		c0.294,0,0.568-0.043,0.821-0.127c0.966-0.21,1.764-0.755,2.395-1.639c0.419-0.589,0.84-1.177,1.262-1.766
		c0.462-0.589,0.692-1.218,0.692-1.891c0-0.167-0.021-0.356-0.063-0.567c-0.126-0.883-0.567-1.618-1.324-2.207
		c-1.934-1.428-3.573-3.299-4.917-5.61c-0.126-0.252-0.063-0.483,0.188-0.693c0.547-0.42,1.912-1.45,4.099-3.089
		c0.84-0.673,1.261-1.534,1.261-2.584c0-0.884-0.316-1.619-0.946-2.207l-0.757-0.758c-0.672-0.63-1.471-0.945-2.395-0.945h-0.19
		c-1.008,0.042-1.849,0.441-2.521,1.199c-0.463,0.504-0.926,0.986-1.388,1.448c-0.085,0.043-0.178,0.055-0.283,0.032
		c-0.104-0.02-0.157-0.073-0.157-0.158c-0.378-1.387-0.694-2.837-0.946-4.35c-0.084-0.294,0.042-0.441,0.378-0.441h6.304
		c1.052,0,1.934-0.367,2.649-1.104c0.713-0.734,1.071-1.607,1.071-2.615v-0.379c0-1.009-0.358-1.88-1.071-2.616
		c-0.716-0.734-1.598-1.104-2.649-1.104h-25.09c-0.337,0-0.483-0.146-0.441-0.44v-3.342V34.855c0-0.336,0.168-0.505,0.505-0.505
		h24.082c1.009,0,1.881-0.356,2.617-1.071C254.575,32.565,254.944,31.682,254.944,30.631z M235.969,57.802
		c0-0.294,0.146-0.441,0.44-0.441h0.442c0.293,0,0.462,0.147,0.504,0.441c0.924,5.885,2.184,10.781,3.782,14.689
		c0.126,0.294,0.021,0.464-0.315,0.505l-4.413,0.818c-0.295,0.043-0.44-0.084-0.44-0.378V57.802z"/>
	<path fill="#0D0D0D" d="M232.5,38.07c-1.008,0-1.882,0.357-2.615,1.072c-0.736,0.715-1.104,1.598-1.104,2.648v0.189
		c0,1.009,0.367,1.881,1.104,2.616c0.733,0.736,1.607,1.103,2.615,1.103h17.022c1.05,0,1.932-0.367,2.646-1.103
		c0.716-0.735,1.072-1.607,1.072-2.616V41.79c0-1.05-0.356-1.933-1.072-2.648c-0.715-0.715-1.597-1.072-2.646-1.072H232.5z"/>
	<path fill="#0D0D0D" d="M281.421,77.471c1.01-0.419,1.744-1.112,2.207-2.08c0.378-0.63,0.568-1.302,0.568-2.018
		c0-0.293-0.043-0.608-0.126-0.945c-0.211-0.967-0.737-1.681-1.577-2.143c-0.504-0.293-1.03-0.442-1.576-0.442
		c-0.337,0-0.692,0.063-1.071,0.19c-5.169,1.723-9.289,3.047-12.356,3.971c-0.925,0.294-1.576,0.883-1.955,1.765
		c-0.168,0.379-0.251,0.778-0.251,1.198c0,0.463,0.104,0.925,0.315,1.387l0.692,1.261c0.462,0.925,1.198,1.576,2.206,1.955
		c0.462,0.209,0.947,0.314,1.451,0.314s1.008-0.105,1.513-0.314c2.06-0.842,4.539-1.851,7.439-3.026
		c0.294-0.126,0.505-0.041,0.631,0.252c0.418,0.924,0.819,1.892,1.197,2.9c0.378,1.051,0.986,1.912,1.828,2.585
		c0.798,0.631,1.701,0.945,2.711,0.945c0.041,0,0.104-0.021,0.188-0.063c2.648-0.084,4.706-0.442,6.179-1.072
		c1.303-0.589,2.194-1.377,2.68-2.364c0.481-0.988,0.725-2.47,0.725-4.443v-1.451c0-0.126,0.041-0.21,0.126-0.252
		c0.083-0.041,0.189-0.041,0.315,0c4.791,2.102,9.246,4.288,13.365,6.557c0.631,0.336,1.28,0.504,1.953,0.504
		c0.295,0,0.609-0.021,0.946-0.062c1.008-0.253,1.786-0.821,2.332-1.704l0.883-1.261c0.336-0.588,0.504-1.197,0.504-1.827
		c0-0.293-0.042-0.588-0.126-0.884c-0.252-0.966-0.818-1.68-1.701-2.143c-4.077-2.017-7.859-3.74-11.349-5.17
		c-0.589-0.252-1.176-0.378-1.764-0.378c-0.421,0-0.863,0.063-1.325,0.188c-1.05,0.337-1.89,0.946-2.521,1.828l-1.388,1.893
		c-0.043,0.042-0.094,0.053-0.158,0.031c-0.062-0.021-0.094-0.073-0.094-0.157V60.072c0-1.05-0.369-1.933-1.103-2.647
		c-0.737-0.715-1.609-1.072-2.617-1.072h-1.765c-1.01,0-1.883,0.357-2.616,1.072c-0.737,0.715-1.104,1.598-1.104,2.647v16.959
		c0,0.379-0.073,0.641-0.22,0.788c-0.148,0.147-0.432,0.221-0.851,0.221c-1.557,0-2.881-0.021-3.973-0.063
		c-0.085,0-0.126-0.031-0.126-0.095c0-0.063,0.021-0.094,0.063-0.094L281.421,77.471z"/>
	<path fill="#0D0D0D" d="M277.072,45.918c-0.169,0.275-0.295,0.496-0.379,0.662c-0.168,0.253-0.42,0.379-0.756,0.379h-11.223
		c-1.009,0-1.882,0.369-2.615,1.103c-0.736,0.736-1.104,1.608-1.104,2.616v0.127c0,1.008,0.368,1.881,1.104,2.615
		c0.733,0.737,1.606,1.104,2.615,1.104h4.917c0.084,0,0.137,0.042,0.158,0.126c0.021,0.085,0.011,0.148-0.032,0.189
		c-2.227,2.018-4.58,3.804-7.06,5.358c-0.757,0.464-1.135,1.156-1.135,2.08c0,0.758,0.314,1.388,0.946,1.892
		c0.545,0.463,1.092,0.945,1.639,1.451c0.757,0.756,1.639,1.239,2.646,1.449c0.253,0.042,0.483,0.063,0.694,0.063
		c0.756,0,1.492-0.23,2.207-0.693c0.923-0.672,1.828-1.345,2.711-2.018c0.209-0.209,0.441-0.209,0.693,0
		c1.219,0.968,2.332,1.892,3.341,2.774c0.757,0.716,1.618,1.071,2.585,1.071h0.063c0.967,0,1.808-0.355,2.522-1.071l0.63-0.631
		c0.714-0.714,1.072-1.576,1.072-2.585c0-1.092-0.421-1.954-1.261-2.584c-0.926-0.757-1.955-1.534-3.091-2.333
		c-0.252-0.21-0.272-0.42-0.062-0.63c1.134-1.303,2.101-2.479,2.9-3.53c0.21-0.253,0.462-0.379,0.756-0.379h16.266
		c0.293,0,0.545,0.126,0.756,0.379c0.588,0.756,1.408,1.764,2.458,3.025c0.167,0.211,0.148,0.442-0.062,0.694
		c-0.969,0.924-1.997,1.85-3.09,2.774c-0.758,0.63-1.136,1.408-1.136,2.332c0,0.925,0.358,1.683,1.073,2.27l0.126,0.063
		c0.882,0.673,1.869,1.051,2.962,1.135h0.316c1.009,0,1.932-0.294,2.772-0.883c1.009-0.672,2.061-1.429,3.153-2.27
		c0.252-0.21,0.504-0.21,0.755,0c1.051,0.715,2.145,1.409,3.279,2.08c0.588,0.337,1.198,0.505,1.829,0.505
		c0.336,0,0.691-0.063,1.07-0.189c1.01-0.252,1.828-0.818,2.459-1.702c0.504-0.672,1.029-1.302,1.575-1.892
		c0.42-0.545,0.631-1.112,0.631-1.702c0-0.209-0.021-0.419-0.062-0.63c-0.169-0.841-0.653-1.45-1.45-1.828
		c-2.144-1.093-4.204-2.396-6.179-3.908c-0.085-0.042-0.116-0.095-0.095-0.158c0.021-0.064,0.072-0.095,0.157-0.095h4.477
		c1.009,0,1.881-0.367,2.615-1.104c0.735-0.734,1.104-1.607,1.104-2.615v-0.127c0-1.008-0.369-1.88-1.104-2.616
		c-0.734-0.734-1.606-1.103-2.615-1.103h-11.727c-0.337,0-0.589-0.126-0.756-0.379c-0.21-0.335-0.484-0.755-0.82-1.26
		c-0.085-0.084-0.095-0.179-0.03-0.283c0.062-0.105,0.136-0.159,0.221-0.159h7.312c0.968,0,1.798-0.336,2.49-1.008
		c0.694-0.672,1.04-1.502,1.04-2.491c0-0.986-0.346-1.817-1.04-2.49c-0.692-0.671-1.522-1.008-2.49-1.008h-19.543
		c-0.126,0-0.221-0.052-0.283-0.158c-0.063-0.104-0.073-0.199-0.031-0.283c0.084-0.336,0.188-0.672,0.314-1.009
		c0.084-0.294,0.295-0.441,0.632-0.441h21.244c1.051,0,1.934-0.357,2.648-1.073c0.713-0.713,1.071-1.586,1.071-2.616
		c0-1.029-0.358-1.9-1.071-2.616c-0.715-0.714-1.598-1.071-2.648-1.071h-19.354c-0.294,0-0.4-0.147-0.316-0.442
		c0.042-0.252,0.064-0.505,0.064-0.757c0-0.629-0.211-1.239-0.63-1.828c-0.59-0.756-1.367-1.175-2.333-1.26l-2.649-0.19h-0.313
		c-0.884,0-1.683,0.295-2.396,0.883c-0.841,0.631-1.345,1.472-1.513,2.521c-0.042,0.211-0.063,0.421-0.063,0.631
		c-0.085,0.295-0.273,0.442-0.566,0.442h-14.564c-1.008,0-1.881,0.357-2.616,1.071c-0.734,0.716-1.102,1.587-1.102,2.616
		c0,1.03,0.367,1.903,1.102,2.616c0.735,0.716,1.608,1.073,2.616,1.073h12.672c0.126,0,0.222,0.052,0.284,0.157
		c0.063,0.105,0.073,0.211,0.032,0.315c-0.043,0.106-0.095,0.263-0.159,0.473c-0.062,0.211-0.115,0.379-0.157,0.505
		c-0.126,0.294-0.337,0.441-0.63,0.441h-8.952c-0.968,0-1.786,0.337-2.459,1.008c-0.673,0.673-1.009,1.504-1.009,2.49
		c0,0.989,0.336,1.819,1.009,2.491s1.491,1.008,2.459,1.008h5.675c0.083,0,0.156,0.054,0.221,0.159
		c0.062,0.104,0.051,0.199-0.033,0.283C277.365,45.446,277.239,45.646,277.072,45.918z M287.096,46.518
		c0.042-0.126,0.136-0.325,0.283-0.6c0.147-0.272,0.263-0.472,0.348-0.598c0.126-0.293,0.336-0.442,0.631-0.442h4.791
		c0.293,0,0.504,0.149,0.63,0.442c0.21,0.421,0.42,0.819,0.63,1.198c0.041,0.126,0.041,0.231,0,0.315
		c-0.042,0.084-0.126,0.126-0.251,0.126h-6.809c-0.126,0-0.211-0.042-0.253-0.126S287.054,46.644,287.096,46.518z"/>
	<path fill="#0D0D0D" d="M346.986,77.345c-0.716,0.631-1.135,1.409-1.261,2.333v0.378c0,0.757,0.252,1.429,0.756,2.018
		c0.168,0.21,0.336,0.399,0.505,0.567c0.673,0.84,1.514,1.365,2.522,1.576c0.252,0.041,0.503,0.063,0.756,0.063
		c0.714,0,1.387-0.232,2.018-0.693c1.555-1.262,2.983-2.774,4.286-4.54c0.21-0.251,0.421-0.272,0.632-0.063
		c0.083,0.126,0.188,0.252,0.313,0.378c0.631,0.714,1.429,1.113,2.396,1.198h0.253c0.84,0,1.576-0.315,2.206-0.946l0.126-0.063
		c0.21-0.211,0.42-0.211,0.631,0c0.757,0.714,1.533,1.577,2.332,2.585c0.672,0.798,1.513,1.302,2.521,1.513
		c0.252,0.041,0.483,0.063,0.694,0.063c0.713,0,1.386-0.232,2.016-0.694c1.304-1.093,2.438-2.332,3.405-3.719
		c0.167-0.253,0.378-0.273,0.63-0.063c1.387,1.261,2.542,2.354,3.468,3.278c0.715,0.714,1.555,1.072,2.522,1.072h0.126
		c0.923,0,1.743-0.337,2.458-1.009l0.756-0.82c0.714-0.714,1.073-1.598,1.073-2.647s-0.379-1.912-1.135-2.585
		c-1.388-1.219-3.302-2.772-5.737-4.665c-0.252-0.21-0.316-0.462-0.189-0.757c0.083-0.378,0.189-0.734,0.315-1.071
		c0.084-0.336,0.126-0.651,0.126-0.944c0-0.632-0.189-1.24-0.568-1.83c-0.589-0.839-1.386-1.365-2.395-1.576l-0.946-0.126
		c-0.253-0.041-0.482-0.063-0.692-0.063c-0.716,0-1.408,0.211-2.081,0.63c-0.842,0.59-1.387,1.388-1.64,2.396
		c-1.176,4.245-3.215,7.418-6.115,9.519v-0.063c0.295-0.336,0.463-0.724,0.506-1.166c0.041-0.441-0.106-0.851-0.441-1.229
		c-0.883-1.009-2.018-2.121-3.405-3.342c-0.252-0.21-0.337-0.462-0.252-0.756c0.167-0.462,0.315-0.924,0.441-1.388
		c0.126-0.336,0.188-0.672,0.188-1.007c0-0.59-0.188-1.157-0.566-1.703c-0.504-0.882-1.262-1.429-2.271-1.64l-1.196-0.189
		c-0.254-0.083-0.506-0.126-0.758-0.126c-0.715,0-1.387,0.211-2.017,0.631c-0.841,0.547-1.41,1.324-1.703,2.332
		C351.378,72.218,349.509,75.202,346.986,77.345z"/>
	<path fill="#0D0D0D" d="M325.048,65.935c0,1.009,0.252,2.018,0.756,3.026c0.293,0.546,0.568,1.093,0.82,1.639
		c0.336,0.673,0.883,1.051,1.638,1.135h0.19c0.631,0,1.112-0.314,1.449-0.945c0.925-1.766,1.828-3.867,2.712-6.305
		c0-0.041,0.03-0.052,0.095-0.031c0.062,0.021,0.094,0.053,0.094,0.094v16.896c0,1.051,0.357,1.935,1.072,2.648
		c0.714,0.714,1.596,1.071,2.646,1.071h1.009c1.01,0,1.882-0.357,2.616-1.071c0.736-0.714,1.104-1.598,1.104-2.648V59.694
		c0-0.042,0.02-0.073,0.063-0.095c0.041-0.021,0.083,0.011,0.126,0.095c0.419,0.925,0.756,1.702,1.01,2.332
		c0.336,0.716,0.901,1.114,1.7,1.198c0.084,0.042,0.168,0.063,0.253,0.063c0.673,0,1.219-0.293,1.64-0.882l0.378-0.567
		c0.672-0.967,1.009-2.038,1.009-3.215c0-1.092-0.274-2.08-0.82-2.963c-2.395-3.656-4.097-6.198-5.105-7.628
		c-0.168-0.252-0.252-0.526-0.252-0.819v-1.199c0-0.293,0.146-0.441,0.44-0.441h3.656c0.42,0,0.778-0.147,1.072-0.442
		c0.294-0.293,0.441-0.65,0.441-1.071c0-0.041,0.011-0.063,0.031-0.063c0.021,0,0.032,0.022,0.032,0.063
		c0.167,0.211,0.315,0.421,0.441,0.631c0.504,0.882,1.219,1.449,2.144,1.702c0.293,0.084,0.587,0.126,0.882,0.126
		c0.63,0,1.218-0.189,1.766-0.567c1.093-0.798,2.186-1.66,3.277-2.585c0.042,0,0.095,0.011,0.158,0.031
		c0.063,0.022,0.094,0.054,0.094,0.095c0,0.799,0.274,1.471,0.82,2.017c0.546,0.547,1.218,0.82,2.017,0.82h13.996
		c0.84,0,1.555-0.294,2.145-0.883c0.588-0.588,0.882-1.281,0.882-2.08c0-0.084,0.031-0.147,0.094-0.19
		c0.064-0.041,0.116-0.041,0.159,0c0.965,0.799,1.89,1.536,2.772,2.207c0.547,0.378,1.155,0.568,1.828,0.568
		c0.252,0,0.526-0.021,0.82-0.064c0.966-0.252,1.702-0.819,2.207-1.702c0.419-0.757,0.839-1.45,1.26-2.08
		c0.378-0.546,0.568-1.135,0.568-1.766c0-0.293-0.042-0.567-0.126-0.819c-0.211-0.924-0.716-1.639-1.514-2.143
		c-4.119-2.48-8.069-6.01-11.853-10.591c-1.597-1.976-3.593-2.963-5.989-2.963h-1.135c-2.311,0-4.223,1.051-5.736,3.151
		c-3.488,4.792-7.438,8.659-11.852,11.601c-0.042,0.042-0.085,0.053-0.126,0.031c-0.043-0.02-0.063-0.053-0.063-0.095
		c0-0.462-0.157-0.851-0.474-1.166c-0.313-0.315-0.704-0.472-1.166-0.472h-3.53c-0.295,0-0.44-0.148-0.44-0.442v-8.889
		c0-1.009-0.368-1.88-1.104-2.617c-0.734-0.734-1.606-1.102-2.616-1.102h-1.009c-1.051,0-1.933,0.368-2.646,1.102
		c-0.715,0.737-1.072,1.608-1.072,2.617v8.889c0,0.294-0.168,0.442-0.504,0.442h-2.963c-1.009,0-1.881,0.368-2.616,1.102
		c-0.736,0.737-1.104,1.609-1.104,2.616v1.262c0,1.008,0.367,1.881,1.104,2.616c0.735,0.736,1.607,1.103,2.616,1.103h2.332
		c0.294,0,0.42,0.148,0.379,0.441c-1.43,6.305-3.448,11.811-6.053,16.518C325.363,63.667,325.048,64.8,325.048,65.935z
		 M360.225,38.889c1.934-2.1,3.615-4.16,5.044-6.177c0.041-0.084,0.126-0.136,0.252-0.159c0.126-0.02,0.21,0.033,0.252,0.159
		c1.598,2.102,3.384,4.161,5.359,6.177c0.042,0.043,0.052,0.106,0.032,0.19c-0.022,0.085-0.074,0.126-0.158,0.126h-10.654
		c-0.085,0-0.147-0.041-0.188-0.126C360.12,38.995,360.141,38.932,360.225,38.889z"/>
	<path fill="#0D0D0D" d="M361.233,64.359c1.01,0,1.882-0.367,2.616-1.104c0.736-0.734,1.104-1.607,1.104-2.616v-8.385
		c0-1.049-0.368-1.932-1.104-2.647c-0.734-0.714-1.606-1.071-2.616-1.071h-8.888c-1.052,0-1.934,0.357-2.648,1.071
		c-0.716,0.715-1.071,1.598-1.071,2.647v8.385c0,1.009,0.355,1.882,1.071,2.616c0.715,0.736,1.597,1.104,2.648,1.104H361.233z
		 M355.308,55.091c0-0.293,0.168-0.441,0.505-0.441h1.64c0.294,0,0.44,0.148,0.44,0.441v2.648c0,0.295-0.146,0.441-0.44,0.441h-1.64
		c-0.337,0-0.505-0.146-0.505-0.441V55.091z"/>
	<path fill="#0D0D0D" d="M379.958,64.359c1.009,0,1.881-0.367,2.616-1.104c0.734-0.734,1.104-1.607,1.104-2.616v-8.385
		c0-1.049-0.369-1.932-1.104-2.647c-0.735-0.714-1.607-1.071-2.616-1.071h-9.394c-1.009,0-1.882,0.357-2.616,1.071
		c-0.735,0.715-1.103,1.598-1.103,2.647v8.385c0,1.009,0.367,1.882,1.103,2.616c0.734,0.736,1.607,1.104,2.616,1.104H379.958z
		 M373.717,55.091c0-0.293,0.146-0.441,0.441-0.441h1.827c0.337,0,0.505,0.148,0.505,0.441v2.648c0,0.295-0.168,0.441-0.505,0.441
		h-1.827c-0.295,0-0.441-0.146-0.441-0.441V55.091z"/>
	<path fill="#0D0D0D" d="M397.043,77.598c0.378,0.378,0.818,0.525,1.323,0.441c0.588-0.042,1.082-0.284,1.481-0.726
		s0.6-0.935,0.6-1.481v-1.828c0-2.185-0.086-4.287-0.254-6.304c-0.042-0.547-0.272-0.978-0.692-1.292
		c-0.421-0.316-0.883-0.452-1.388-0.411c-0.505,0.043-0.925,0.274-1.261,0.693c-0.337,0.421-0.482,0.884-0.44,1.389
		c0.126,1.764,0.188,3.487,0.188,5.168c0,1.009-0.02,2.018-0.062,3.026C396.496,76.778,396.664,77.219,397.043,77.598z"/>
	<path fill="#0D0D0D" d="M390.611,80.498c0.379,0.168,0.778,0.252,1.197,0.252c0.252,0,0.505-0.042,0.757-0.126
		c0.714-0.21,1.199-0.651,1.45-1.323c1.261-3.278,1.893-7.062,1.893-11.347c0-0.632-0.189-1.199-0.568-1.704
		c-0.463-0.544-1.03-0.881-1.701-1.007c-0.631-0.128-1.209,0.01-1.735,0.408c-0.524,0.4-0.787,0.936-0.787,1.607
		c-0.294,4.077-0.861,7.313-1.702,9.709c-0.168,0.378-0.252,0.737-0.252,1.072c0,0.294,0.063,0.609,0.188,0.945
		C389.561,79.657,389.98,80.162,390.611,80.498z"/>
	<path fill="#0D0D0D" d="M414.505,56.604c-0.715-0.756-1.598-1.135-2.648-1.135h-2.646c-0.295,0-0.442-0.146-0.442-0.44v-2.018
		c0-0.336,0.147-0.504,0.442-0.504h1.324c0.924,0,1.723-0.325,2.396-0.977c0.671-0.652,1.008-1.45,1.008-2.396
		c0-0.946-0.337-1.744-1.008-2.395c-0.673-0.652-1.472-0.978-2.396-0.978h-1.324c-0.295,0-0.442-0.167-0.442-0.504v-1.891
		c0-0.294,0.147-0.442,0.442-0.442h1.071c0.925,0,1.724-0.336,2.396-1.009c0.671-0.671,1.007-1.47,1.007-2.395
		c0-0.924-0.336-1.723-1.007-2.396c-0.673-0.671-1.472-1.008-2.396-1.008h-1.071c-0.295,0-0.442-0.147-0.442-0.442V33.72
		c0-0.294,0.147-0.441,0.442-0.441h1.954c1.009,0,1.858-0.357,2.554-1.072c0.692-0.714,1.04-1.565,1.04-2.553
		c0-0.988-0.348-1.838-1.04-2.554c-0.695-0.714-1.545-1.071-2.554-1.071H395.34c-1.051,0-1.934,0.368-2.648,1.103
		c-0.715,0.736-1.07,1.608-1.07,2.616v28.999c0,1.009,0.355,1.882,1.07,2.618s1.598,1.103,2.648,1.103h12.482
		c0.336,0,0.505,0.147,0.505,0.442l-0.063,3.277c-0.043,0.042-0.085,0.042-0.127,0v-0.126c-0.21-0.42-0.526-0.734-0.946-0.946
		c-0.421-0.209-0.86-0.252-1.323-0.126c-0.42,0.126-0.735,0.4-0.945,0.82c-0.211,0.42-0.252,0.841-0.126,1.261
		c0.63,1.85,1.113,3.615,1.45,5.295c0.041,0.38,0.221,0.674,0.535,0.883c0.315,0.211,0.661,0.252,1.04,0.126
		c0.041-0.041,0.084-0.041,0.127,0c0.041,0.043,0.041,0.085,0,0.126c-0.17,2.522-0.4,4.015-0.693,4.477
		c-0.295,0.504-0.716,0.778-1.261,0.819c-0.8,0.043-1.431,0.399-1.893,1.073c-0.337,0.419-0.505,0.902-0.505,1.448
		c0,0.21,0.021,0.42,0.064,0.631c0.252,1.05,0.756,1.912,1.513,2.586c0.714,0.588,1.512,0.882,2.395,0.882h0.253
		c0.798-0.043,1.429-0.126,1.892-0.252c1.68-0.337,2.983-1.178,3.909-2.522c0.336-0.504,0.588-1.114,0.756-1.828
		c0-0.126,0.053-0.2,0.158-0.221c0.104-0.021,0.198-0.011,0.282,0.031c0.673,0.588,1.43,1.261,2.271,2.018
		c0.757,0.798,1.639,1.239,2.648,1.324h0.314c0.882,0,1.66-0.315,2.333-0.946c0.923-1.008,1.743-2.122,2.459-3.341
		c0.167-0.295,0.356-0.315,0.567-0.063c0.293,0.38,0.588,0.758,0.883,1.135c0.588,0.757,1.323,1.177,2.206,1.262h0.314
		c0.758,0,1.407-0.295,1.954-0.883c0.21-0.211,0.442-0.231,0.694-0.063c0.546,0.505,1.113,1.029,1.702,1.576
		c0.757,0.798,1.639,1.239,2.646,1.324h0.316c0.883,0,1.638-0.315,2.269-0.946c0.841-0.882,1.598-1.828,2.271-2.837
		c0.167-0.294,0.355-0.313,0.566-0.062c0.547,0.713,1.051,1.386,1.514,2.017c0.589,0.798,1.365,1.281,2.333,1.449
		c0.21,0.042,0.42,0.063,0.63,0.063c0.715,0,1.387-0.231,2.017-0.693c0.841-0.63,1.325-1.45,1.451-2.459
		c0.042-0.21,0.063-0.399,0.063-0.567c0-0.799-0.254-1.513-0.758-2.143c-1.22-1.514-2.689-3.174-4.412-4.981
		c-0.212-0.21-0.273-0.481-0.188-0.819c0.167-0.883,0.335-1.807,0.504-2.773c0.041-0.21,0.063-0.399,0.063-0.567
		c0-0.757-0.273-1.45-0.819-2.081c-0.673-0.798-1.535-1.218-2.585-1.261h-0.252h-0.189c-0.925,0-1.745,0.316-2.459,0.945
		c-0.798,0.673-1.282,1.536-1.45,2.585c-0.547,3.658-1.723,6.537-3.529,8.637c-0.211,0.253-0.4,0.233-0.567-0.062
		c-0.799-1.051-2.292-2.775-4.477-5.171c-0.21-0.252-0.294-0.524-0.252-0.819c0.168-0.714,0.294-1.427,0.379-2.144
		c0.041-0.21,0.062-0.398,0.062-0.567c0-0.797-0.272-1.491-0.818-2.08c-0.632-0.797-1.473-1.218-2.521-1.26h-0.189h-0.189
		c-0.925,0-1.744,0.313-2.458,0.944c-0.799,0.673-1.284,1.535-1.451,2.585c-0.756,4.876-2.668,8.428-5.735,10.654
		c-0.086,0.041-0.158,0.041-0.223,0c-0.062-0.043-0.093-0.105-0.093-0.189c0.588-4.033,0.882-10.78,0.882-20.236
		C415.514,58.16,415.177,57.32,414.505,56.604z M401.77,55.029c0,0.294-0.146,0.44-0.44,0.44h-2.018
		c-0.337,0-0.505-0.146-0.505-0.44v-2.018c0-0.336,0.168-0.504,0.505-0.504h2.018c0.294,0,0.44,0.168,0.44,0.504V55.029z
		 M401.77,45.257c0,0.337-0.146,0.504-0.44,0.504h-2.018c-0.337,0-0.505-0.167-0.505-0.504v-1.891c0-0.294,0.168-0.442,0.505-0.442
		h2.018c0.294,0,0.44,0.148,0.44,0.442V45.257z M401.77,35.674c0,0.295-0.146,0.442-0.44,0.442h-2.018
		c-0.337,0-0.505-0.147-0.505-0.442V33.72c0-0.294,0.168-0.441,0.505-0.441h2.018c0.294,0,0.44,0.147,0.44,0.441V35.674z"/>
	<path fill="#0D0D0D" d="M427.996,64.421c1.051,0,1.933-0.367,2.647-1.103c0.714-0.735,1.072-1.608,1.072-2.615V51.75
		c0-1.008-0.358-1.88-1.072-2.616c-0.715-0.735-1.597-1.103-2.647-1.103h-7.062c-1.008,0-1.88,0.368-2.616,1.103
		c-0.734,0.736-1.102,1.608-1.102,2.616v8.954c0,1.007,0.367,1.88,1.102,2.615c0.736,0.735,1.608,1.103,2.616,1.103H427.996z
		 M423.079,54.209c0-0.294,0.167-0.441,0.504-0.441h1.451c0.293,0,0.439,0.147,0.439,0.441v3.971c0,0.295-0.146,0.442-0.439,0.442
		h-1.451c-0.337,0-0.504-0.147-0.504-0.442V54.209z"/>
	<path fill="#0D0D0D" d="M402.212,75.801c0.379,0.316,0.819,0.432,1.324,0.347c0.545-0.084,0.986-0.336,1.323-0.757
		c0.336-0.42,0.483-0.903,0.441-1.45c-0.168-2.185-0.526-4.476-1.072-6.871c-0.085-0.505-0.337-0.893-0.756-1.166
		c-0.42-0.273-0.882-0.389-1.387-0.348c-0.463,0.085-0.841,0.337-1.135,0.757c-0.294,0.421-0.378,0.862-0.252,1.324
		c0.462,2.438,0.757,4.75,0.883,6.935C401.623,75.077,401.834,75.486,402.212,75.801z"/>
	<path fill="#0D0D0D" d="M447.918,35.738c-3.404-2.06-6.578-4.981-9.521-8.764c-1.555-2.017-3.509-3.025-5.862-3.025h-0.883
		c-2.312,0-4.202,1.05-5.674,3.151c-2.521,3.657-5.442,6.662-8.762,9.016c-0.842,0.547-1.368,1.302-1.577,2.269
		c-0.084,0.337-0.126,0.653-0.126,0.945c0,0.631,0.147,1.241,0.441,1.829c0.253,0.421,0.481,0.841,0.692,1.261
		c0.462,0.925,1.136,1.535,2.019,1.828c0.336,0.126,0.672,0.189,1.009,0.189c0.546,0,1.072-0.189,1.576-0.567
		c0.883-0.63,1.765-1.302,2.646-2.017c0.084-0.042,0.168-0.053,0.253-0.032c0.083,0.021,0.126,0.094,0.126,0.22v0.19
		c0,1.009,0.357,1.881,1.071,2.616s1.597,1.104,2.648,1.104h9.205c1.008,0,1.868-0.357,2.584-1.073
		c0.714-0.714,1.071-1.576,1.071-2.585c0-0.126,0.041-0.209,0.126-0.252c0.084-0.041,0.167-0.02,0.252,0.064
		c0.715,0.589,1.43,1.135,2.145,1.639c0.546,0.378,1.135,0.567,1.765,0.567c0.293,0,0.588-0.041,0.882-0.126
		c0.968-0.293,1.682-0.883,2.145-1.765c0.379-0.672,0.734-1.302,1.072-1.891c0.293-0.546,0.44-1.114,0.44-1.702
		c0-0.294-0.043-0.609-0.126-0.946C449.305,36.956,448.758,36.242,447.918,35.738z M437.705,39.016
		c-0.042,0.084-0.106,0.126-0.19,0.126h-10.211c-0.085,0-0.149-0.042-0.19-0.126c-0.043-0.084-0.021-0.147,0.063-0.189
		c2.017-2.144,3.677-4.246,4.98-6.305c0.041-0.083,0.114-0.126,0.221-0.126c0.104,0,0.199,0.043,0.284,0.126
		c1.302,2.102,2.982,4.203,5.043,6.305C437.746,38.869,437.746,38.932,437.705,39.016z"/>
	<path fill="#0D0D0D" d="M444.829,64.421c1.008,0,1.881-0.367,2.615-1.103c0.736-0.735,1.104-1.608,1.104-2.615V51.75
		c0-1.008-0.368-1.88-1.104-2.616c-0.734-0.735-1.607-1.103-2.615-1.103h-7.628c-1.01,0-1.883,0.368-2.617,1.103
		c-0.735,0.736-1.104,1.608-1.104,2.616v8.954c0,1.007,0.368,1.88,1.104,2.615c0.734,0.735,1.607,1.103,2.617,1.103H444.829z
		 M439.407,54.209c0-0.294,0.167-0.441,0.504-0.441h1.829c0.293,0,0.44,0.147,0.44,0.441v3.971c0,0.295-0.147,0.442-0.44,0.442
		h-1.829c-0.337,0-0.504-0.147-0.504-0.442V54.209z"/>
	<path fill="#0D0D0D" d="M203.28,113.857c0.262-0.604,0.392-1.293,0.392-2.067v-6.72c0-0.24-0.086-0.449-0.256-0.627
		c-0.171-0.176-0.383-0.264-0.635-0.264h-0.982c-0.251,0-0.463,0.088-0.633,0.264c-0.171,0.178-0.257,0.387-0.257,0.627v6.507
		c0,0.716-0.114,1.219-0.339,1.51c-0.227,0.293-0.571,0.438-1.034,0.438c-0.373,0-0.716-0.146-1.028-0.438
		c-0.18-0.17-0.381-0.276-0.603-0.316c-0.051-0.01-0.106-0.016-0.166-0.016c-0.161,0-0.318,0.051-0.468,0.151l-0.453,0.348
		c-0.212,0.15-0.338,0.347-0.378,0.588c-0.01,0.061-0.015,0.117-0.015,0.166c0,0.182,0.061,0.348,0.181,0.499
		c0.785,0.926,1.883,1.389,3.292,1.389c0.835,0,1.542-0.188,2.121-0.565C202.597,114.952,203.017,114.46,203.28,113.857z"/>
	<path fill="#0D0D0D" d="M209.053,115.419c0.172,0.177,0.384,0.265,0.635,0.265h0.98c0.243,0,0.452-0.088,0.628-0.265
		c0.177-0.175,0.263-0.384,0.263-0.627v-8.213c0-0.07,0.036-0.105,0.107-0.105h2.129c0.241,0,0.45-0.088,0.626-0.265
		c0.177-0.175,0.265-0.384,0.265-0.626v-0.514c0-0.24-0.088-0.449-0.265-0.627c-0.176-0.176-0.385-0.264-0.626-0.264h-7.217
		c-0.252,0-0.463,0.088-0.634,0.264c-0.171,0.178-0.257,0.387-0.257,0.627v0.514c0,0.242,0.086,0.451,0.257,0.626
		c0.171,0.177,0.382,0.265,0.634,0.265h2.099c0.08,0,0.12,0.035,0.12,0.105v8.213C208.797,115.036,208.883,115.245,209.053,115.419z
		"/>
	<path fill="#0D0D0D" d="M219.252,115.419c0.171,0.177,0.383,0.265,0.635,0.265h0.98c0.243,0,0.452-0.088,0.627-0.265
		c0.177-0.175,0.264-0.384,0.264-0.627v-8.213c0-0.07,0.035-0.105,0.107-0.105h2.128c0.242,0,0.45-0.088,0.626-0.265
		c0.176-0.175,0.266-0.384,0.266-0.626v-0.514c0-0.24-0.09-0.449-0.266-0.627c-0.176-0.176-0.384-0.264-0.626-0.264h-7.216
		c-0.252,0-0.463,0.088-0.635,0.264c-0.171,0.178-0.256,0.387-0.256,0.627v0.514c0,0.242,0.085,0.451,0.256,0.626
		c0.172,0.177,0.383,0.265,0.635,0.265h2.097c0.081,0,0.121,0.035,0.121,0.105v8.213
		C218.995,115.036,219.081,115.245,219.252,115.419z"/>
	<path fill="#0D0D0D" d="M233.541,113.359h-3.698c-0.081,0-0.12-0.034-0.12-0.105v-2.219c0-0.071,0.039-0.106,0.12-0.106h2.839
		c0.252,0,0.463-0.088,0.635-0.265c0.171-0.176,0.256-0.385,0.256-0.625v-0.544c0-0.242-0.085-0.451-0.256-0.627
		c-0.172-0.177-0.383-0.265-0.635-0.265h-2.839c-0.081,0-0.12-0.035-0.12-0.105v-1.918c0-0.07,0.039-0.105,0.12-0.105h3.519
		c0.252,0,0.463-0.088,0.635-0.265c0.169-0.175,0.255-0.384,0.255-0.626v-0.514c0-0.24-0.086-0.449-0.255-0.627
		c-0.172-0.176-0.383-0.264-0.635-0.264h-5.511c-0.241,0-0.45,0.088-0.627,0.264c-0.177,0.178-0.265,0.387-0.265,0.627v9.723
		c0,0.243,0.088,0.452,0.265,0.627c0.177,0.177,0.386,0.265,0.627,0.265h5.69c0.243,0,0.452-0.088,0.627-0.265
		c0.176-0.175,0.266-0.384,0.266-0.627v-0.543c0-0.242-0.09-0.45-0.266-0.627C233.993,113.447,233.784,113.359,233.541,113.359z"/>
	<path fill="#0D0D0D" d="M245.295,114.159c0-0.241-0.075-0.452-0.226-0.634l-0.318-0.378c-0.149-0.171-0.347-0.267-0.589-0.287
		h-0.06c-0.222,0-0.418,0.061-0.588,0.182c-0.484,0.322-0.992,0.483-1.526,0.483c-0.825,0-1.476-0.318-1.955-0.959
		c-0.478-0.639-0.717-1.526-0.717-2.665c0-1.087,0.258-1.955,0.778-2.604c0.518-0.648,1.159-0.974,1.925-0.974
		c0.453,0,0.881,0.121,1.283,0.362c0.171,0.111,0.361,0.166,0.573,0.166h0.105c0.252-0.029,0.448-0.136,0.59-0.316l0.332-0.378
		c0.14-0.181,0.21-0.382,0.21-0.604c0-0.292-0.111-0.513-0.332-0.665c-0.854-0.613-1.792-0.92-2.808-0.92
		c-0.735,0-1.433,0.135-2.091,0.407c-0.659,0.271-1.243,0.659-1.751,1.164c-0.51,0.502-0.911,1.139-1.208,1.908
		c-0.298,0.771-0.445,1.618-0.445,2.544c0,0.946,0.143,1.8,0.429,2.56c0.288,0.76,0.681,1.381,1.179,1.865
		c0.498,0.482,1.069,0.85,1.714,1.101c0.645,0.252,1.339,0.378,2.084,0.378c1.196,0,2.233-0.356,3.108-1.072
		C245.195,114.652,245.295,114.43,245.295,114.159z"/>
	<path fill="#0D0D0D" d="M262.609,114.823c0.367-0.332,0.65-0.714,0.847-1.146c0.195-0.434,0.294-0.892,0.294-1.375
		c0-1.499-0.754-2.551-2.266-3.155l-1.434-0.573c-0.039-0.021-0.095-0.04-0.166-0.061c-0.242-0.1-0.42-0.174-0.535-0.219
		c-0.117-0.044-0.257-0.11-0.424-0.196c-0.165-0.086-0.284-0.164-0.354-0.234s-0.134-0.153-0.188-0.249
		c-0.055-0.095-0.083-0.204-0.083-0.323c0-0.303,0.121-0.539,0.362-0.71c0.241-0.172,0.578-0.258,1.012-0.258
		c0.563,0,1.101,0.137,1.615,0.408c0.172,0.091,0.348,0.136,0.527,0.136c0.062,0,0.121-0.005,0.183-0.016
		c0.252-0.04,0.447-0.15,0.589-0.331l0.271-0.348c0.142-0.171,0.212-0.362,0.212-0.574v-0.091c-0.02-0.26-0.131-0.462-0.333-0.604
		c-0.915-0.624-1.936-0.936-3.063-0.936c-1.208,0-2.204,0.335-2.99,1.004c-0.785,0.669-1.177,1.492-1.177,2.468
		c0,0.775,0.219,1.427,0.657,1.956c0.437,0.528,0.993,0.928,1.668,1.199l1.479,0.619c0.04,0.021,0.107,0.051,0.197,0.091
		c0.522,0.222,0.89,0.408,1.101,0.559c0.212,0.151,0.318,0.368,0.318,0.649c0,0.322-0.125,0.571-0.377,0.747
		c-0.252,0.177-0.624,0.265-1.117,0.265c-0.666,0-1.36-0.222-2.084-0.665c-0.171-0.1-0.353-0.15-0.543-0.15h-0.137
		c-0.252,0.03-0.452,0.136-0.604,0.316l-0.437,0.529c-0.143,0.171-0.212,0.362-0.212,0.573c0,0.03,0.005,0.061,0.015,0.091
		c0.021,0.252,0.13,0.444,0.333,0.573c1.086,0.735,2.289,1.103,3.607,1.103c0.675,0,1.292-0.096,1.85-0.287
		C261.778,115.417,262.242,115.155,262.609,114.823z"/>
	<path fill="#0D0D0D" d="M268.86,106.474h3.519c0.252,0,0.463-0.088,0.635-0.265c0.169-0.175,0.255-0.384,0.255-0.626v-0.514
		c0-0.24-0.086-0.449-0.255-0.627c-0.172-0.176-0.383-0.264-0.635-0.264h-5.511c-0.241,0-0.45,0.088-0.627,0.264
		c-0.177,0.178-0.265,0.387-0.265,0.627v9.723c0,0.243,0.088,0.452,0.265,0.627c0.177,0.177,0.386,0.265,0.627,0.265h5.691
		c0.243,0,0.451-0.088,0.626-0.265c0.176-0.175,0.266-0.384,0.266-0.627v-0.543c0-0.242-0.09-0.45-0.266-0.627
		c-0.175-0.176-0.383-0.264-0.626-0.264h-3.699c-0.081,0-0.119-0.034-0.119-0.105v-2.219c0-0.071,0.038-0.106,0.119-0.106h2.839
		c0.252,0,0.463-0.088,0.635-0.265c0.171-0.176,0.256-0.385,0.256-0.625v-0.544c0-0.242-0.085-0.451-0.256-0.627
		c-0.172-0.177-0.383-0.265-0.635-0.265h-2.839c-0.081,0-0.119-0.035-0.119-0.105v-1.918
		C268.741,106.509,268.779,106.474,268.86,106.474z"/>
	<path fill="#0D0D0D" d="M284.751,107.802c0-2.414-1.5-3.622-4.499-3.622h-3.337c-0.241,0-0.45,0.087-0.627,0.263
		c-0.177,0.177-0.265,0.386-0.265,0.627v9.723c0,0.242,0.088,0.451,0.265,0.627c0.177,0.178,0.386,0.265,0.627,0.265h0.98
		c0.251,0,0.464-0.087,0.634-0.265c0.173-0.176,0.259-0.385,0.259-0.627v-3.049c0-0.07,0.039-0.105,0.121-0.105h1.102
		c0.07,0,0.126,0.029,0.166,0.09l1.646,3.171c0.131,0.241,0.314,0.433,0.551,0.574c0.235,0.141,0.491,0.211,0.763,0.211h1.313
		c0.19,0,0.337-0.085,0.438-0.257c0.05-0.091,0.075-0.176,0.075-0.257c0-0.091-0.021-0.176-0.061-0.257l-2.084-3.699
		c-0.029-0.061-0.014-0.105,0.047-0.136C284.122,110.445,284.751,109.353,284.751,107.802z M281.527,109.034
		c-0.338,0.276-0.838,0.414-1.503,0.414h-1.115c-0.082,0-0.121-0.034-0.121-0.105v-2.868c0-0.07,0.039-0.105,0.121-0.105h1.115
		c0.686,0,1.191,0.108,1.519,0.324c0.327,0.217,0.49,0.587,0.49,1.109C282.033,108.347,281.865,108.756,281.527,109.034z"/>
	<path fill="#0D0D0D" d="M289.122,115.451c0.211,0.155,0.446,0.233,0.709,0.233h1.523c0.273,0,0.515-0.078,0.727-0.233
		c0.211-0.157,0.353-0.361,0.422-0.612l2.96-9.799c0.019-0.07,0.028-0.141,0.028-0.21c0-0.132-0.045-0.258-0.136-0.378
		c-0.13-0.182-0.306-0.272-0.527-0.272h-1.041c-0.252,0-0.48,0.081-0.688,0.241c-0.206,0.161-0.345,0.368-0.415,0.619l-1.087,4.379
		c-0.112,0.423-0.26,1.037-0.447,1.842c-0.186,0.805-0.329,1.409-0.429,1.812c-0.01,0.021-0.028,0.03-0.053,0.03
		c-0.026,0-0.043-0.01-0.054-0.03c-0.1-0.402-0.243-1.007-0.431-1.812c-0.186-0.805-0.334-1.419-0.445-1.842l-1.101-4.379
		c-0.063-0.251-0.197-0.458-0.408-0.619c-0.212-0.16-0.443-0.241-0.694-0.241h-1.147c-0.221,0-0.398,0.091-0.529,0.272
		c-0.091,0.12-0.135,0.246-0.135,0.378c0,0.069,0.009,0.14,0.03,0.21l2.929,9.783C288.764,115.085,288.91,115.293,289.122,115.451z"
		/>
	<path fill="#0D0D0D" d="M299.078,104.179h-0.981c-0.241,0-0.449,0.088-0.626,0.264c-0.177,0.178-0.266,0.387-0.266,0.627v9.723
		c0,0.243,0.089,0.452,0.266,0.627c0.177,0.177,0.385,0.265,0.626,0.265h0.981c0.251,0,0.463-0.088,0.633-0.265
		c0.172-0.175,0.259-0.384,0.259-0.627v-9.723c0-0.24-0.087-0.449-0.259-0.627C299.541,104.267,299.329,104.179,299.078,104.179z"/>
	<path fill="#0D0D0D" d="M311.209,114.159c0-0.241-0.075-0.452-0.226-0.634l-0.318-0.378c-0.15-0.171-0.347-0.267-0.59-0.287h-0.059
		c-0.222,0-0.418,0.061-0.589,0.182c-0.484,0.322-0.991,0.483-1.526,0.483c-0.825,0-1.476-0.318-1.954-0.959
		c-0.478-0.639-0.717-1.526-0.717-2.665c0-1.087,0.258-1.955,0.777-2.604c0.519-0.648,1.16-0.974,1.925-0.974
		c0.453,0,0.881,0.121,1.284,0.362c0.171,0.111,0.361,0.166,0.572,0.166h0.106c0.252-0.029,0.448-0.136,0.589-0.316l0.333-0.378
		c0.14-0.181,0.21-0.382,0.21-0.604c0-0.292-0.111-0.513-0.332-0.665c-0.854-0.613-1.792-0.92-2.808-0.92
		c-0.735,0-1.433,0.135-2.091,0.407c-0.659,0.271-1.243,0.659-1.752,1.164c-0.509,0.502-0.911,1.139-1.208,1.908
		c-0.298,0.771-0.445,1.618-0.445,2.544c0,0.946,0.144,1.8,0.43,2.56c0.288,0.76,0.681,1.381,1.178,1.865
		c0.499,0.482,1.069,0.85,1.715,1.101c0.644,0.252,1.339,0.378,2.084,0.378c1.196,0,2.232-0.356,3.108-1.072
		C311.108,114.652,311.209,114.43,311.209,114.159z"/>
	<path fill="#0D0D0D" d="M320.123,113.359h-3.699c-0.08,0-0.12-0.034-0.12-0.105v-2.219c0-0.071,0.04-0.106,0.12-0.106h2.839
		c0.252,0,0.463-0.088,0.635-0.265c0.171-0.176,0.256-0.385,0.256-0.625v-0.544c0-0.242-0.085-0.451-0.256-0.627
		c-0.172-0.177-0.383-0.265-0.635-0.265h-2.839c-0.08,0-0.12-0.035-0.12-0.105v-1.918c0-0.07,0.04-0.105,0.12-0.105h3.519
		c0.252,0,0.463-0.088,0.635-0.265c0.169-0.175,0.255-0.384,0.255-0.626v-0.514c0-0.24-0.086-0.449-0.255-0.627
		c-0.172-0.176-0.383-0.264-0.635-0.264h-5.511c-0.241,0-0.45,0.088-0.627,0.264c-0.177,0.178-0.265,0.387-0.265,0.627v9.723
		c0,0.243,0.088,0.452,0.265,0.627c0.177,0.177,0.386,0.265,0.627,0.265h5.691c0.242,0,0.451-0.088,0.626-0.265
		c0.177-0.175,0.266-0.384,0.266-0.627v-0.543c0-0.242-0.089-0.45-0.266-0.627C320.574,113.447,320.365,113.359,320.123,113.359z"/>
	<path fill="#0D0D0D" d="M339.952,114.159c0-0.241-0.076-0.452-0.227-0.634l-0.317-0.378c-0.15-0.171-0.348-0.267-0.59-0.287h-0.06
		c-0.222,0-0.418,0.061-0.588,0.182c-0.484,0.322-0.992,0.483-1.526,0.483c-0.825,0-1.476-0.318-1.955-0.959
		c-0.477-0.639-0.717-1.526-0.717-2.665c0-1.087,0.259-1.955,0.778-2.604c0.518-0.648,1.16-0.974,1.925-0.974
		c0.453,0,0.881,0.121,1.283,0.362c0.171,0.111,0.362,0.166,0.573,0.166h0.105c0.252-0.029,0.448-0.136,0.59-0.316l0.332-0.378
		c0.14-0.181,0.211-0.382,0.211-0.604c0-0.292-0.11-0.513-0.333-0.665c-0.854-0.613-1.792-0.92-2.808-0.92
		c-0.735,0-1.433,0.135-2.091,0.407c-0.659,0.271-1.243,0.659-1.751,1.164c-0.509,0.502-0.911,1.139-1.208,1.908
		c-0.298,0.771-0.445,1.618-0.445,2.544c0,0.946,0.143,1.8,0.429,2.56c0.289,0.76,0.681,1.381,1.179,1.865
		c0.498,0.482,1.069,0.85,1.714,1.101c0.645,0.252,1.339,0.378,2.084,0.378c1.196,0,2.233-0.356,3.109-1.072
		C339.852,114.652,339.952,114.43,339.952,114.159z"/>
	<path fill="#0D0D0D" d="M350.239,114.28c0.968-1.077,1.449-2.546,1.449-4.409c0-1.851-0.479-3.299-1.44-4.341
		c-0.961-1.041-2.239-1.562-3.835-1.562s-2.873,0.521-3.834,1.562c-0.963,1.042-1.442,2.49-1.442,4.341
		c0,1.863,0.483,3.332,1.45,4.409c0.964,1.074,2.235,1.612,3.815,1.615h0.021C348.004,115.892,349.275,115.354,350.239,114.28z
		 M344.624,112.543c-0.434-0.654-0.649-1.545-0.649-2.673c0-1.106,0.216-1.974,0.649-2.603c0.434-0.63,1.028-0.945,1.789-0.945
		c0.76,0,1.358,0.315,1.798,0.945c0.437,0.629,0.655,1.496,0.655,2.603c0,1.117-0.219,2.006-0.655,2.665
		c-0.439,0.659-1.038,0.989-1.798,0.989C345.652,113.525,345.058,113.198,344.624,112.543z"/>
	<path fill="#0D0D0D" d="M362.84,107.802c0-2.414-1.5-3.622-4.499-3.622h-3.337c-0.241,0-0.45,0.087-0.627,0.263
		c-0.176,0.177-0.265,0.386-0.265,0.627v9.723c0,0.242,0.089,0.451,0.265,0.627c0.177,0.178,0.386,0.265,0.627,0.265h0.98
		c0.251,0,0.463-0.087,0.635-0.265c0.172-0.176,0.257-0.385,0.257-0.627v-3.049c0-0.07,0.04-0.105,0.121-0.105h1.103
		c0.069,0,0.125,0.029,0.166,0.09l1.646,3.171c0.131,0.241,0.314,0.433,0.551,0.574c0.235,0.141,0.491,0.211,0.763,0.211h1.313
		c0.19,0,0.337-0.085,0.438-0.257c0.05-0.091,0.075-0.176,0.075-0.257c0-0.091-0.021-0.176-0.061-0.257l-2.084-3.699
		c-0.029-0.061-0.015-0.105,0.047-0.136C362.21,110.445,362.84,109.353,362.84,107.802z M359.615,109.034
		c-0.337,0.276-0.837,0.414-1.502,0.414h-1.116c-0.081,0-0.121-0.034-0.121-0.105v-2.868c0-0.07,0.04-0.105,0.121-0.105h1.116
		c0.686,0,1.191,0.108,1.519,0.324c0.327,0.217,0.49,0.587,0.49,1.109C360.122,108.347,359.953,108.756,359.615,109.034z"/>
	<path fill="#0D0D0D" d="M372.645,104.979c-0.433-0.281-0.918-0.485-1.456-0.611c-0.54-0.125-1.14-0.188-1.804-0.188h-3.141
		c-0.242,0-0.45,0.088-0.627,0.264c-0.177,0.177-0.266,0.386-0.266,0.627v9.724c0,0.241,0.089,0.45,0.266,0.627
		c0.177,0.176,0.385,0.264,0.627,0.264h0.98c0.251,0,0.463-0.088,0.634-0.264c0.171-0.177,0.258-0.386,0.258-0.627v-2.809
		c0-0.08,0.04-0.121,0.12-0.121h1.224c0.623,0,1.205-0.078,1.744-0.232c0.538-0.157,1.018-0.392,1.44-0.703
		c0.423-0.313,0.757-0.725,1.004-1.238c0.246-0.514,0.37-1.101,0.37-1.767c0-0.685-0.121-1.275-0.361-1.774
		C373.416,105.651,373.078,105.261,372.645,104.979z M369.324,109.69h-1.088c-0.08,0-0.12-0.04-0.12-0.121v-3.095
		c0-0.07,0.04-0.105,0.12-0.105h1.012c0.694,0,1.214,0.118,1.556,0.354c0.341,0.237,0.513,0.637,0.513,1.2
		C371.316,109.101,370.651,109.69,369.324,109.69z"/>
	<path fill="#0D0D0D" d="M384.851,114.28c0.968-1.077,1.449-2.546,1.449-4.409c0-1.851-0.48-3.299-1.44-4.341
		c-0.963-1.041-2.239-1.562-3.836-1.562c-1.596,0-2.872,0.521-3.834,1.562c-0.963,1.042-1.442,2.49-1.442,4.341
		c0,1.863,0.483,3.332,1.45,4.409c0.964,1.074,2.236,1.612,3.815,1.615h0.021C382.615,115.892,383.887,115.354,384.851,114.28z
		 M379.235,112.543c-0.435-0.654-0.649-1.545-0.649-2.673c0-1.106,0.215-1.974,0.649-2.603c0.433-0.63,1.027-0.945,1.788-0.945
		s1.358,0.315,1.798,0.945c0.437,0.629,0.655,1.496,0.655,2.603c0,1.117-0.219,2.006-0.655,2.665
		c-0.439,0.659-1.037,0.989-1.798,0.989S379.668,113.198,379.235,112.543z"/>
	<path fill="#0D0D0D" d="M397.45,107.802c0-2.414-1.499-3.622-4.499-3.622h-3.337c-0.241,0-0.449,0.087-0.626,0.263
		c-0.177,0.177-0.266,0.386-0.266,0.627v9.723c0,0.242,0.089,0.451,0.266,0.627c0.177,0.178,0.385,0.265,0.626,0.265h0.981
		c0.251,0,0.463-0.087,0.633-0.265c0.173-0.176,0.259-0.385,0.259-0.627v-3.049c0-0.07,0.039-0.105,0.121-0.105h1.102
		c0.07,0,0.126,0.029,0.166,0.09l1.646,3.171c0.131,0.241,0.314,0.433,0.551,0.574c0.236,0.141,0.49,0.211,0.763,0.211h1.314
		c0.189,0,0.336-0.085,0.438-0.257c0.049-0.091,0.074-0.176,0.074-0.257c0-0.091-0.021-0.176-0.061-0.257l-2.084-3.699
		c-0.029-0.061-0.014-0.105,0.046-0.136C396.821,110.445,397.45,109.353,397.45,107.802z M394.227,109.034
		c-0.338,0.276-0.838,0.414-1.502,0.414h-1.116c-0.082,0-0.121-0.034-0.121-0.105v-2.868c0-0.07,0.039-0.105,0.121-0.105h1.116
		c0.685,0,1.19,0.108,1.518,0.324c0.327,0.217,0.491,0.587,0.491,1.109C394.733,108.347,394.564,108.756,394.227,109.034z"/>
	<path fill="#0D0D0D" d="M405.067,104.414c-0.212-0.156-0.448-0.234-0.71-0.234h-1.526c-0.271,0-0.513,0.078-0.724,0.234
		c-0.211,0.155-0.357,0.359-0.438,0.611l-3.049,9.813c-0.021,0.07-0.03,0.137-0.03,0.196c0,0.141,0.045,0.267,0.136,0.377
		c0.131,0.182,0.308,0.273,0.527,0.273h1.028c0.261,0,0.495-0.081,0.701-0.243c0.207-0.161,0.345-0.367,0.415-0.619l0.424-1.676
		c0.01-0.069,0.054-0.105,0.135-0.105h3.17c0.081,0,0.131,0.036,0.152,0.105l0.407,1.676c0.07,0.252,0.21,0.458,0.415,0.619
		c0.206,0.162,0.439,0.243,0.702,0.243h1.117c0.222,0,0.398-0.092,0.529-0.273c0.09-0.11,0.134-0.236,0.134-0.377
		c0-0.06-0.009-0.126-0.029-0.196l-3.05-9.813C405.423,104.773,405.278,104.569,405.067,104.414z M404.674,110.875
		c-0.02,0.025-0.046,0.038-0.075,0.038h-2.113c-0.03,0-0.057-0.013-0.075-0.038c-0.021-0.023-0.027-0.052-0.016-0.083l0.227-0.86
		c0.18-0.734,0.472-1.956,0.876-3.668c0-0.021,0.009-0.031,0.029-0.031c0.02,0,0.036,0.011,0.046,0.031
		c0.091,0.362,0.236,0.964,0.437,1.804c0.202,0.841,0.354,1.462,0.453,1.864l0.228,0.86
		C404.699,110.823,404.694,110.851,404.674,110.875z"/>
	<path fill="#0D0D0D" d="M412.185,115.419c0.171,0.177,0.384,0.265,0.636,0.265h0.979c0.243,0,0.452-0.088,0.627-0.265
		c0.177-0.175,0.264-0.384,0.264-0.627v-8.213c0-0.07,0.035-0.105,0.107-0.105h2.128c0.242,0,0.45-0.088,0.626-0.265
		c0.177-0.175,0.265-0.384,0.265-0.626v-0.514c0-0.24-0.088-0.449-0.265-0.627c-0.176-0.176-0.384-0.264-0.626-0.264h-7.216
		c-0.252,0-0.463,0.088-0.635,0.264c-0.171,0.178-0.256,0.387-0.256,0.627v0.514c0,0.242,0.085,0.451,0.256,0.626
		c0.172,0.177,0.383,0.265,0.635,0.265h2.098c0.08,0,0.12,0.035,0.12,0.105v8.213C411.928,115.036,412.014,115.245,412.185,115.419z
		"/>
	<path fill="#0D0D0D" d="M420.783,104.179c-0.241,0-0.45,0.088-0.627,0.264c-0.177,0.178-0.265,0.387-0.265,0.627v9.723
		c0,0.243,0.088,0.452,0.265,0.627c0.177,0.177,0.386,0.265,0.627,0.265h0.98c0.251,0,0.463-0.088,0.634-0.265
		c0.172-0.175,0.257-0.384,0.257-0.627v-9.723c0-0.24-0.085-0.449-0.257-0.627c-0.171-0.176-0.383-0.264-0.634-0.264H420.783z"/>
	<path fill="#0D0D0D" d="M434.181,114.28c0.968-1.077,1.449-2.546,1.449-4.409c0-1.851-0.479-3.299-1.439-4.341
		c-0.963-1.041-2.24-1.562-3.837-1.562c-1.595,0-2.872,0.521-3.834,1.562c-0.962,1.042-1.441,2.49-1.441,4.341
		c0,1.863,0.482,3.332,1.45,4.409c0.964,1.074,2.235,1.612,3.814,1.615h0.021C431.946,115.892,433.217,115.354,434.181,114.28z
		 M428.566,112.543c-0.435-0.654-0.65-1.545-0.65-2.673c0-1.106,0.216-1.974,0.65-2.603c0.433-0.63,1.027-0.945,1.787-0.945
		c0.761,0,1.359,0.315,1.799,0.945c0.437,0.629,0.655,1.496,0.655,2.603c0,1.117-0.219,2.006-0.655,2.665
		c-0.439,0.659-1.038,0.989-1.799,0.989C429.594,113.525,428.999,113.198,428.566,112.543z"/>
	<path fill="#0D0D0D" d="M440.425,107.652l1.103,2.476l2.445,4.756c0.12,0.252,0.299,0.448,0.535,0.589
		c0.237,0.142,0.492,0.212,0.763,0.212h1.028c0.25,0,0.461-0.088,0.633-0.265c0.171-0.175,0.257-0.384,0.257-0.627v-9.723
		c0-0.24-0.086-0.449-0.257-0.627c-0.172-0.176-0.383-0.264-0.633-0.264h-0.846c-0.242,0-0.451,0.088-0.627,0.264
		c-0.178,0.178-0.265,0.387-0.265,0.627v2.914c0,0.887,0.12,2.29,0.362,4.212c0.01,0.03,0.002,0.047-0.023,0.047
		c-0.023,0-0.042-0.017-0.053-0.047l-1.117-2.506l-2.445-4.726c-0.131-0.242-0.313-0.433-0.543-0.573
		c-0.232-0.142-0.488-0.212-0.771-0.212h-1.025c-0.241,0-0.45,0.088-0.627,0.264c-0.177,0.178-0.265,0.387-0.265,0.627v9.723
		c0,0.243,0.088,0.452,0.265,0.627c0.177,0.177,0.386,0.265,0.627,0.265h0.846c0.252,0,0.463-0.088,0.634-0.265
		c0.17-0.175,0.256-0.384,0.256-0.627v-2.929c0-0.411-0.017-0.845-0.052-1.298c-0.036-0.453-0.09-1.012-0.166-1.676
		c-0.076-0.665-0.12-1.077-0.128-1.238c0-0.03,0.011-0.045,0.037-0.045C440.396,107.607,440.415,107.622,440.425,107.652z"/>
	<rect x="197.369" y="94.072" fill="#2D2D2D" width="250.502" height="1"/>
</g>
</svg>
